# xmcd
#
# Track frame offsets: 
#        183
#        13318
#        29540
#        40445
#        65263
#        75120
#        89838
#        100923
#        112595
#        121893
#        131750
#        142818
#        156773
#        166363
#        177400
#        190963
#        209508
#        219020
#        230648
#        242518
#
# Disc length: 3601 seconds
#
# Revision: 4
# Processed by: cddbd v1.5.2PL0 Copyright (c) Steve Scherf et al.
# Submitted via: ExactAudioCopy v0.99pb5
#
DISCID=0d0e0f14
DTITLE=Various Artist - The Classic Soul Years - 1965
DYEAR=1989
DGENRE=Soul
TTITLE0=Fontella Bass - Rescue me
TTITLE1=Billy Stewart - Sitting in the park
TTITLE2=Jackie Lee - The duck
TTITLE3=Ramsey Lewis Trio - The "In" crowd
TTITLE4=Betty Everett - Getting mighty crowded
TTITLE5=Vibrations - Misty
TTITLE6=Marie Knight - Come tomorrow
TTITLE7=Larks - The jerk
TTITLE8=Dixie Cups - Iko Iko
TTITLE9=Jewel Akens - The birds and the bees
TTITLE10=Barbara Lewis - Baby, I'm yours
TTITLE11=Joe Tex - Hold what you've got
TTITLE12=Maxine Brown - If you gotta make a fool of somebody
TTITLE13=Billy Butler and The Chanters - I can't work no longer
TTITLE14=Ad Libs - The boy from New York City
TTITLE15=Little Richard - I don't know what you've got but it's got me
TTITLE16=Three Degrees - Gee baby (I'm sorry)
TTITLE17=Gladys Knight and The Pips - Lovers always forgive
TTITLE18=Little Milton - We're gonna make it
TTITLE19=Dells - Stay in my corner
EXTD=
EXTT0=
EXTT1=
EXTT2=
EXTT3=
EXTT4=
EXTT5=
EXTT6=
EXTT7=
EXTT8=
EXTT9=
EXTT10=
EXTT11=
EXTT12=
EXTT13=
EXTT14=
EXTT15=
EXTT16=
EXTT17=
EXTT18=
EXTT19=
PLAYORDER=
